# MagicaVoxel @ Ephtracy

# group
o 

# material
mtllib Soil.mtl
usemtl palette

# normals
vn -1 0 0
vn 1 0 0
vn 0 0 1
vn 0 0 -1
vn 0 -1 0
vn 0 1 0

# texcoords
vt 0.00195313 0.5
vt 0.0214844 0.5

# verts
v 0 0.1 0
v 0 0.1 -0.2
v 0 0.1 -0.4
v 0 0.1 -0.6
v 0 0.1 -0.8
v 0 0.1 -1
v 0 0.1 -1.2
v 0 0.1 -1.4
v 0 0.3 0
v 0 0.3 -0.2
v 0 0.3 -0.4
v 0 0.3 -0.6
v 0 0.3 -0.8
v 0 0.3 -1
v 0 0.3 -1.2
v 0 0.3 -1.4
v 1.4 0.1 0
v 1.4 0.1 -0.2
v 1.4 0.1 -0.4
v 1.4 0.1 -0.6
v 1.4 0.1 -0.8
v 1.4 0.1 -1
v 1.4 0.1 -1.2
v 1.4 0.1 -1.4
v 1.4 0.3 0
v 1.4 0.3 -0.2
v 1.4 0.3 -0.4
v 1.4 0.3 -0.6
v 1.4 0.3 -0.8
v 1.4 0.3 -1
v 1.4 0.3 -1.2
v 1.4 0.3 -1.4
v 0 0.1 0
v 0 0.3 0
v 1.4 0.1 0
v 1.4 0.3 0
v 0 0.1 -1.4
v 0 0.3 -1.4
v 1.4 0.1 -1.4
v 1.4 0.3 -1.4
v 0 0.1 0
v 1.4 0.1 0
v 0 0.1 -0.2
v 1.4 0.1 -0.2
v 0 0.1 -0.4
v 1.4 0.1 -0.4
v 0 0.1 -0.6
v 1.4 0.1 -0.6
v 0 0.1 -0.8
v 1.4 0.1 -0.8
v 0 0.1 -1
v 1.4 0.1 -1
v 0 0.1 -1.2
v 1.4 0.1 -1.2
v 0 0.1 -1.4
v 1.4 0.1 -1.4
v 0 0.3 0
v 1.4 0.3 0
v 0 0.3 -0.2
v 1.4 0.3 -0.2
v 0 0.3 -0.4
v 1.4 0.3 -0.4
v 0 0.3 -0.6
v 1.4 0.3 -0.6
v 0 0.3 -0.8
v 1.4 0.3 -0.8
v 0 0.3 -1
v 1.4 0.3 -1
v 0 0.3 -1.2
v 1.4 0.3 -1.2
v 0 0.3 -1.4
v 1.4 0.3 -1.4

# faces
f 9/1/1 2/1/1 1/1/1
f 10/2/1 3/2/1 2/2/1
f 10/1/1 2/1/1 9/1/1
f 11/1/1 4/1/1 3/1/1
f 11/2/1 3/2/1 10/2/1
f 12/2/1 5/2/1 4/2/1
f 12/1/1 4/1/1 11/1/1
f 13/1/1 6/1/1 5/1/1
f 13/2/1 5/2/1 12/2/1
f 14/2/1 7/2/1 6/2/1
f 14/1/1 6/1/1 13/1/1
f 15/1/1 8/1/1 7/1/1
f 15/2/1 7/2/1 14/2/1
f 16/1/1 8/1/1 15/1/1
f 17/1/2 18/1/2 25/1/2
f 18/2/2 19/2/2 26/2/2
f 25/1/2 18/1/2 26/1/2
f 19/1/2 20/1/2 27/1/2
f 26/2/2 19/2/2 27/2/2
f 20/2/2 21/2/2 28/2/2
f 27/1/2 20/1/2 28/1/2
f 21/1/2 22/1/2 29/1/2
f 28/2/2 21/2/2 29/2/2
f 22/2/2 23/2/2 30/2/2
f 29/1/2 22/1/2 30/1/2
f 23/1/2 24/1/2 31/1/2
f 30/2/2 23/2/2 31/2/2
f 31/1/2 24/1/2 32/1/2
f 35/1/3 34/1/3 33/1/3
f 36/1/3 34/1/3 35/1/3
f 37/1/4 38/1/4 39/1/4
f 39/1/4 38/1/4 40/1/4
f 43/1/5 42/1/5 41/1/5
f 44/1/5 42/1/5 43/1/5
f 45/2/5 44/2/5 43/2/5
f 46/2/5 44/2/5 45/2/5
f 47/1/5 46/1/5 45/1/5
f 48/1/5 46/1/5 47/1/5
f 49/2/5 48/2/5 47/2/5
f 50/2/5 48/2/5 49/2/5
f 51/1/5 50/1/5 49/1/5
f 52/1/5 50/1/5 51/1/5
f 53/2/5 52/2/5 51/2/5
f 54/2/5 52/2/5 53/2/5
f 55/1/5 54/1/5 53/1/5
f 56/1/5 54/1/5 55/1/5
f 57/1/6 58/1/6 59/1/6
f 59/1/6 58/1/6 60/1/6
f 59/2/6 60/2/6 61/2/6
f 61/2/6 60/2/6 62/2/6
f 61/1/6 62/1/6 63/1/6
f 63/1/6 62/1/6 64/1/6
f 63/2/6 64/2/6 65/2/6
f 65/2/6 64/2/6 66/2/6
f 65/1/6 66/1/6 67/1/6
f 67/1/6 66/1/6 68/1/6
f 67/2/6 68/2/6 69/2/6
f 69/2/6 68/2/6 70/2/6
f 69/1/6 70/1/6 71/1/6
f 71/1/6 70/1/6 72/1/6
